<svg width="571" height="83" viewBox="0 0 571 83" fill="none" xmlns="http://www.w3.org/2000/svg">
<path d="M0.636719 42.6211C0.636719 36.8594 1.69466 31.5859 3.81055 26.8008C5.92643 22.0156 8.88867 17.9141 12.6973 14.4961C16.5384 11.0456 21.1283 8.3763 26.4668 6.48828C31.8379 4.60026 37.7786 3.65625 44.2891 3.65625C50.7669 3.65625 56.6914 4.60026 62.0625 6.48828C67.4336 8.3763 72.0234 11.0456 75.832 14.4961C79.6732 17.9141 82.6517 22.0156 84.7676 26.8008C86.8835 31.5859 87.9414 36.8594 87.9414 42.6211C87.9414 48.4154 86.8835 53.7376 84.7676 58.5879C82.6517 63.4056 79.6732 67.556 75.832 71.0391C72.0234 74.5221 67.4336 77.2402 62.0625 79.1934C56.6914 81.1139 50.7669 82.0742 44.2891 82.0742C37.7786 82.0742 31.8379 81.1139 26.4668 79.1934C21.1283 77.2402 16.5384 74.5221 12.6973 71.0391C8.88867 67.556 5.92643 63.4056 3.81055 58.5879C1.69466 53.7376 0.636719 48.4154 0.636719 42.6211ZM16.1152 42.6211C16.1152 46.5599 16.8151 50.1081 18.2148 53.2656C19.6471 56.4232 21.6165 59.125 24.123 61.3711C26.6621 63.5846 29.6406 65.2936 33.0586 66.498C36.5091 67.7025 40.2526 68.3047 44.2891 68.3047C48.3255 68.3047 52.0527 67.7025 55.4707 66.498C58.9212 65.2936 61.8997 63.5846 64.4062 61.3711C66.9128 59.125 68.8822 56.4232 70.3145 53.2656C71.7467 50.1081 72.4629 46.5599 72.4629 42.6211C72.4629 38.6823 71.7467 35.1504 70.3145 32.0254C68.8822 28.9004 66.9128 26.2637 64.4062 24.1152C61.8997 21.9342 58.9212 20.2741 55.4707 19.1348C52.0527 17.9954 48.3255 17.4258 44.2891 17.4258C40.2526 17.4258 36.5091 17.9954 33.0586 19.1348C29.6406 20.2741 26.6621 21.9342 24.123 24.1152C21.6165 26.2637 19.6471 28.9004 18.2148 32.0254C16.8151 35.1504 16.1152 38.6823 16.1152 42.6211Z" fill="#00466A"/>
<path d="M95.3633 23.334H112.111L127.102 58.002L131.496 67.7188L136.867 55.1211L122.609 23.334H136.672L143.654 40.4238L150.637 23.334H164.699L150.393 55.1211L155.812 67.7188L160.207 58.002L175.197 23.334H191.945L164.65 81H148.928L143.654 69.8672L138.381 81H122.658L95.3633 23.334Z" fill="#D62828"/>
<path d="M202.053 23.3828H216.506V28.2656C220.347 26.0846 224.009 24.5547 227.492 23.6758C231.008 22.7969 234.442 22.3574 237.795 22.3574C242.189 22.3574 246.258 23.0085 250.002 24.3105C253.745 25.5801 256.984 27.4844 259.719 30.0234C262.453 32.5625 264.585 35.7363 266.115 39.5449C267.678 43.321 268.459 47.6992 268.459 52.6797V81H254.055V55.0234C254.055 51.8659 253.599 49.0501 252.688 46.5762C251.809 44.0697 250.523 41.9701 248.83 40.2773C247.17 38.5521 245.135 37.25 242.727 36.3711C240.35 35.4596 237.681 35.0039 234.719 35.0039C233.156 35.0039 231.545 35.1667 229.885 35.4922C228.257 35.8177 226.646 36.2897 225.051 36.9082C223.488 37.4941 221.975 38.2428 220.51 39.1543C219.045 40.0332 217.71 41.0423 216.506 42.1816V81H202.053V23.3828Z" fill="#F77F00"/>
<path d="M294.924 34.2227H281.008V23.3828H294.924V5.46289H309.377V23.3828H323.293V34.2227H309.377V81H294.924V34.2227ZM343.752 15.5215C342.32 15.5215 341.018 15.3262 339.846 14.9355C338.706 14.5124 337.73 13.959 336.916 13.2754C336.102 12.5592 335.467 11.7454 335.012 10.834C334.589 9.88997 334.377 8.89714 334.377 7.85547C334.377 6.78125 334.589 5.78841 335.012 4.87695C335.467 3.93294 336.102 3.11914 336.916 2.43555C337.73 1.75195 338.706 1.21484 339.846 0.824219C341.018 0.401042 342.32 0.189453 343.752 0.189453C345.217 0.189453 346.519 0.401042 347.658 0.824219C348.83 1.21484 349.823 1.75195 350.637 2.43555C351.451 3.11914 352.069 3.93294 352.492 4.87695C352.948 5.78841 353.176 6.78125 353.176 7.85547C353.176 8.89714 352.948 9.88997 352.492 10.834C352.069 11.7454 351.451 12.5592 350.637 13.2754C349.823 13.959 348.83 14.5124 347.658 14.9355C346.519 15.3262 345.217 15.5215 343.752 15.5215ZM336.525 23.3828H350.979V81H336.525V23.3828ZM369.924 23.3828H384.377V28.2656C387.99 26.0521 391.506 24.5221 394.924 23.6758C398.374 22.7969 401.743 22.3574 405.031 22.3574C409.621 22.3574 413.837 23.0898 417.678 24.5547C421.519 26.0195 424.807 28.2331 427.541 31.1953C429.657 29.5677 431.74 28.2005 433.791 27.0938C435.842 25.9544 437.893 25.043 439.943 24.3594C441.994 23.6432 444.077 23.1387 446.193 22.8457C448.309 22.5202 450.49 22.3574 452.736 22.3574C457.456 22.3574 461.737 23.0085 465.578 24.3105C469.419 25.5801 472.691 27.4844 475.393 30.0234C478.127 32.5625 480.227 35.7363 481.691 39.5449C483.189 43.321 483.938 47.6992 483.938 52.6797V81H469.533V55.0234C469.533 51.8659 469.077 49.0501 468.166 46.5762C467.287 44.0697 466.034 41.9701 464.406 40.2773C462.811 38.5521 460.891 37.25 458.645 36.3711C456.431 35.4596 453.99 35.0039 451.32 35.0039C449.855 35.0039 448.358 35.1504 446.828 35.4434C445.298 35.7038 443.801 36.127 442.336 36.7129C440.904 37.2988 439.553 38.0475 438.283 38.959C437.014 39.8379 435.907 40.8796 434.963 42.084V81H420.559V55.0234C420.559 51.8659 420.103 49.0501 419.191 46.5762C418.312 44.0697 417.059 41.9701 415.432 40.2773C413.837 38.5521 411.9 37.25 409.621 36.3711C407.375 35.4596 404.901 35.0039 402.199 35.0039C400.539 35.0039 398.863 35.1829 397.17 35.541C395.51 35.8665 393.898 36.3385 392.336 36.957C390.806 37.5755 389.357 38.3242 387.99 39.2031C386.656 40.082 385.451 41.0749 384.377 42.1816V81H369.924V23.3828ZM499.416 51.9961C499.416 48.0898 500.214 44.3626 501.809 40.8145C503.404 37.2337 505.699 34.0762 508.693 31.3418C511.688 28.6074 515.35 26.4264 519.68 24.7988C524.042 23.1712 528.99 22.3574 534.523 22.3574C540.025 22.3574 544.973 23.1875 549.367 24.8477C553.794 26.4753 557.538 28.7214 560.598 31.5859C563.69 34.4505 566.05 37.8197 567.678 41.6934C569.338 45.5671 570.168 49.7174 570.168 54.1445C570.168 54.6979 570.152 55.3001 570.119 55.9512C570.119 56.5697 570.087 57.1393 570.021 57.6602H515.529C516.148 59.3854 517.141 60.9642 518.508 62.3965C519.908 63.8288 521.649 65.0658 523.732 66.1074C525.816 67.1491 528.225 67.9629 530.959 68.5488C533.693 69.1022 536.721 69.3789 540.041 69.3789C543.361 69.3789 546.665 69.0371 549.953 68.3535C553.241 67.6374 556.382 66.7422 559.377 65.668L564.26 76.7031C562.372 77.582 560.451 78.3633 558.498 79.0469C556.577 79.6979 554.559 80.2513 552.443 80.707C550.36 81.1302 548.163 81.4557 545.852 81.6836C543.573 81.9115 541.164 82.0254 538.625 82.0254C532.147 82.0254 526.467 81.2441 521.584 79.6816C516.701 78.1191 512.616 75.987 509.328 73.2852C506.04 70.5833 503.566 67.4095 501.906 63.7637C500.246 60.1178 499.416 56.1953 499.416 51.9961ZM554.836 46.3809C554.315 44.7858 553.501 43.3047 552.395 41.9375C551.32 40.5378 549.969 39.3333 548.342 38.3242C546.714 37.2826 544.826 36.4688 542.678 35.8828C540.529 35.2969 538.169 35.0039 535.598 35.0039C532.863 35.0039 530.373 35.3132 528.127 35.9316C525.881 36.5501 523.911 37.3802 522.219 38.4219C520.526 39.4635 519.11 40.668 517.971 42.0352C516.864 43.4023 516.05 44.8509 515.529 46.3809H554.836Z" fill="#212529"/>
</svg>
